<mxfile host="app.diagrams.net" agent="Mozilla/5.0 (Windows NT 10.0; Win64; x64) AppleWebKit/537.36 (KHTML, like Gecko) Chrome/137.0.0.0 Safari/537.36" version="27.1.4">
  <diagram name="第 1 页" id="wug6x0fUpJfnz1Dn4trB">
    <mxGraphModel dx="1826" dy="1238" grid="0" gridSize="10" guides="1" tooltips="1" connect="1" arrows="1" fold="1" page="0" pageScale="1" pageWidth="827" pageHeight="1169" background="none" math="0" shadow="0">
      <root>
        <mxCell id="0" />
        <mxCell id="1" parent="0" />
        <mxCell id="tRBwUJAZWzsS1wOYCDyl-1" value="" style="rounded=0;whiteSpace=wrap;html=1;" parent="1" vertex="1">
          <mxGeometry x="-262" y="-45" width="716" height="511" as="geometry" />
        </mxCell>
        <mxCell id="tRBwUJAZWzsS1wOYCDyl-2" value="Azure" style="rounded=0;whiteSpace=wrap;html=1;fontStyle=1;align=left;verticalAlign=top;" parent="1" vertex="1">
          <mxGeometry x="-239.5" y="-14" width="661.5" height="100" as="geometry" />
        </mxCell>
        <mxCell id="tRBwUJAZWzsS1wOYCDyl-4" value="MYSQL" style="outlineConnect=0;dashed=0;verticalLabelPosition=bottom;verticalAlign=top;align=center;html=1;shape=mxgraph.aws3.mysql_db_instance_2;fillColor=#2E73B8;gradientColor=none;" parent="1" vertex="1">
          <mxGeometry x="-121" y="-1" width="60" height="63" as="geometry" />
        </mxCell>
        <mxCell id="tRBwUJAZWzsS1wOYCDyl-6" value="BLOB" style="sketch=0;pointerEvents=1;shadow=0;dashed=0;html=1;strokeColor=none;fillColor=#DF8C42;labelPosition=center;verticalLabelPosition=bottom;verticalAlign=top;align=center;outlineConnect=0;shape=mxgraph.veeam2.azure_blob;" parent="1" vertex="1">
          <mxGeometry x="253" y="-1" width="57" height="60.5" as="geometry" />
        </mxCell>
        <mxCell id="tRBwUJAZWzsS1wOYCDyl-7" value="k8s cluster" style="rounded=0;whiteSpace=wrap;html=1;align=left;verticalAlign=top;fontStyle=1" parent="1" vertex="1">
          <mxGeometry x="-239.5" y="100" width="661.5" height="322" as="geometry" />
        </mxCell>
        <mxCell id="tRBwUJAZWzsS1wOYCDyl-8" value="NODE" style="rounded=0;whiteSpace=wrap;html=1;align=left;verticalAlign=top;" parent="1" vertex="1">
          <mxGeometry x="-143" y="189.28" width="264" height="215" as="geometry" />
        </mxCell>
        <mxCell id="YoLGn_0wcHnC_QHhnuQr-15" style="rounded=0;orthogonalLoop=1;jettySize=auto;html=1;exitX=1;exitY=0;exitDx=0;exitDy=0;" edge="1" parent="1" source="tRBwUJAZWzsS1wOYCDyl-9" target="tRBwUJAZWzsS1wOYCDyl-6">
          <mxGeometry relative="1" as="geometry" />
        </mxCell>
        <mxCell id="YoLGn_0wcHnC_QHhnuQr-16" value="④ UPLOAD" style="edgeLabel;html=1;align=center;verticalAlign=middle;resizable=0;points=[];" vertex="1" connectable="0" parent="YoLGn_0wcHnC_QHhnuQr-15">
          <mxGeometry x="0.5171" y="48" relative="1" as="geometry">
            <mxPoint x="-9" y="79" as="offset" />
          </mxGeometry>
        </mxCell>
        <mxCell id="YoLGn_0wcHnC_QHhnuQr-27" style="edgeStyle=orthogonalEdgeStyle;rounded=0;orthogonalLoop=1;jettySize=auto;html=1;exitX=0.25;exitY=0;exitDx=0;exitDy=0;" edge="1" parent="1" source="tRBwUJAZWzsS1wOYCDyl-9" target="YoLGn_0wcHnC_QHhnuQr-6">
          <mxGeometry relative="1" as="geometry" />
        </mxCell>
        <mxCell id="YoLGn_0wcHnC_QHhnuQr-28" value="② SAVE TMP FILE" style="edgeLabel;html=1;align=center;verticalAlign=middle;resizable=0;points=[];" vertex="1" connectable="0" parent="YoLGn_0wcHnC_QHhnuQr-27">
          <mxGeometry x="-0.0243" relative="1" as="geometry">
            <mxPoint y="-11" as="offset" />
          </mxGeometry>
        </mxCell>
        <mxCell id="tRBwUJAZWzsS1wOYCDyl-9" value="auto-partition" style="rounded=1;whiteSpace=wrap;html=1;fillColor=#d5e8d4;strokeColor=#82b366;arcSize=0;align=center;verticalAlign=middle;fontStyle=1" parent="1" vertex="1">
          <mxGeometry x="-101" y="236.28" width="203" height="140" as="geometry" />
        </mxCell>
        <mxCell id="tRBwUJAZWzsS1wOYCDyl-10" value="" style="endArrow=classic;html=1;rounded=0;fontSize=12;startSize=8;endSize=8;curved=1;exitX=0.197;exitY=0.005;exitDx=0;exitDy=0;exitPerimeter=0;" parent="1" source="tRBwUJAZWzsS1wOYCDyl-9" target="tRBwUJAZWzsS1wOYCDyl-4" edge="1">
          <mxGeometry width="50" height="50" relative="1" as="geometry">
            <mxPoint x="-61" y="235" as="sourcePoint" />
            <mxPoint x="345" y="175" as="targetPoint" />
            <Array as="points">
              <mxPoint x="-74" y="134" />
            </Array>
          </mxGeometry>
        </mxCell>
        <mxCell id="tRBwUJAZWzsS1wOYCDyl-13" value="① SELECT" style="edgeLabel;html=1;align=center;verticalAlign=middle;resizable=0;points=[];fontSize=12;" parent="tRBwUJAZWzsS1wOYCDyl-10" vertex="1" connectable="0">
          <mxGeometry x="-0.1012" relative="1" as="geometry">
            <mxPoint y="-9" as="offset" />
          </mxGeometry>
        </mxCell>
        <mxCell id="tRBwUJAZWzsS1wOYCDyl-12" value="" style="endArrow=classic;html=1;rounded=0;fontSize=12;startSize=8;endSize=8;curved=1;entryX=0.367;entryY=1.016;entryDx=0;entryDy=0;entryPerimeter=0;" parent="1" source="tRBwUJAZWzsS1wOYCDyl-9" target="tRBwUJAZWzsS1wOYCDyl-4" edge="1">
          <mxGeometry width="50" height="50" relative="1" as="geometry">
            <mxPoint x="295" y="225" as="sourcePoint" />
            <mxPoint x="345" y="175" as="targetPoint" />
            <Array as="points">
              <mxPoint x="-202" y="115" />
            </Array>
          </mxGeometry>
        </mxCell>
        <mxCell id="tRBwUJAZWzsS1wOYCDyl-15" value="⑥ DELETE" style="edgeLabel;html=1;align=center;verticalAlign=middle;resizable=0;points=[];fontSize=12;" parent="tRBwUJAZWzsS1wOYCDyl-12" vertex="1" connectable="0">
          <mxGeometry x="0.3536" y="-23" relative="1" as="geometry">
            <mxPoint x="17" y="18" as="offset" />
          </mxGeometry>
        </mxCell>
        <mxCell id="hR5da44yzA1dXs82Vs8b-2" value="Key Vault" style="outlineConnect=0;dashed=0;verticalLabelPosition=bottom;verticalAlign=top;align=center;html=1;shape=mxgraph.aws3.kinesis_enabled_app;fillColor=#F58534;gradientColor=none;" parent="1" vertex="1">
          <mxGeometry x="63" y="-1" width="66" height="65.5" as="geometry" />
        </mxCell>
        <mxCell id="YoLGn_0wcHnC_QHhnuQr-6" value="VM DISK" style="rounded=0;whiteSpace=wrap;html=1;fillColor=#f8cecc;strokeColor=#b85450;" vertex="1" parent="1">
          <mxGeometry x="-51" y="236.28" width="152" height="36.72" as="geometry" />
        </mxCell>
        <mxCell id="YoLGn_0wcHnC_QHhnuQr-13" value="" style="endArrow=classic;startArrow=classic;html=1;rounded=0;entryX=0.5;entryY=0.94;entryDx=0;entryDy=0;entryPerimeter=0;exitX=0.75;exitY=0;exitDx=0;exitDy=0;" edge="1" parent="1" source="YoLGn_0wcHnC_QHhnuQr-6" target="hR5da44yzA1dXs82Vs8b-2">
          <mxGeometry width="50" height="50" relative="1" as="geometry">
            <mxPoint x="100" y="295.18" as="sourcePoint" />
            <mxPoint x="216" y="70.99999999999994" as="targetPoint" />
          </mxGeometry>
        </mxCell>
        <mxCell id="YoLGn_0wcHnC_QHhnuQr-14" value="③ Request BLOB AK/SK" style="edgeLabel;html=1;align=center;verticalAlign=middle;resizable=0;points=[];" vertex="1" connectable="0" parent="YoLGn_0wcHnC_QHhnuQr-13">
          <mxGeometry x="0.1474" y="-1" relative="1" as="geometry">
            <mxPoint x="-1" as="offset" />
          </mxGeometry>
        </mxCell>
        <mxCell id="YoLGn_0wcHnC_QHhnuQr-31" style="edgeStyle=orthogonalEdgeStyle;rounded=0;orthogonalLoop=1;jettySize=auto;html=1;exitX=1;exitY=1;exitDx=0;exitDy=0;" edge="1" parent="1" source="YoLGn_0wcHnC_QHhnuQr-6" target="YoLGn_0wcHnC_QHhnuQr-6">
          <mxGeometry relative="1" as="geometry" />
        </mxCell>
        <mxCell id="YoLGn_0wcHnC_QHhnuQr-32" value="⑤ DELETE TMP FILE" style="edgeLabel;html=1;align=center;verticalAlign=middle;resizable=0;points=[];" vertex="1" connectable="0" parent="YoLGn_0wcHnC_QHhnuQr-31">
          <mxGeometry x="-0.2069" relative="1" as="geometry">
            <mxPoint x="43" y="11" as="offset" />
          </mxGeometry>
        </mxCell>
      </root>
    </mxGraphModel>
  </diagram>
</mxfile>
